<?xml version="1.0" encoding="UTF-8" standalone="no"?>
<svg
   viewBox="0 0 10.012074 10.012074"
   version="1.1"
   id="svg2"
   width="10.012074"
   height="10.012074"
   xmlns="http://www.w3.org/2000/svg"
   xmlns:svg="http://www.w3.org/2000/svg">
  <defs
     id="defs2" />
  <title
     id="title1">Artboard-60</title>
  <g
     id="Double_Up"
     data-name="Double Up"
     style="fill:#b2d1d0;fill-opacity:1"
     transform="rotate(90,12,5.0122882)">
    <path
       d="M 16,13 A 1,1 0 0 1 15.293,12.707 L 12,9.414 8.707,12.707 A 1,1 0 1 1 7.293,11.293 l 4,-4 a 1,1 0 0 1 1.414,0 l 4,4 A 1,1 0 0 1 16,13 Z"
       style="fill:#b2d1d0;fill-opacity:1"
       id="path1" />
    <path
       d="M 16,17 A 1,1 0 0 1 15.293,16.707 L 12,13.414 8.707,16.707 A 1,1 0 1 1 7.293,15.293 l 4,-4 a 1,1 0 0 1 1.414,0 l 4,4 A 1,1 0 0 1 16,17 Z"
       style="fill:#b2d1d0;fill-opacity:1"
       id="path2" />
  </g>
</svg>
